<?xml version="1.0" encoding="utf-8"?>
<!-- Generator: Adobe Illustrator 19.1.0, SVG Export Plug-In . SVG Version: 6.00 Build 0)  -->
<svg version="1.1" id="Calque_1" xmlns="http://www.w3.org/2000/svg" xmlns:xlink="http://www.w3.org/1999/xlink" x="0px" y="0px"
	 viewBox="0 0 230 70" style="enable-background:new 0 0 230 70;" xml:space="preserve" preserveAspectRatio="xMinYMid">
<style type="text/css">
	.st0{fill:#EC008C;}
</style>
<g>
	<g>
		<rect x="90.2" y="38.4" width="7" height="2.8"/>
		<path d="M62.8,41.1v-5.6h5.9v-2.7h-5.9v-5.4h-3.2v14.2c0,4.1,1.9,5.8,6.3,5.8h4.7v-2.7h-3.8C64.3,44.6,62.8,44.5,62.8,41.1"/>
		<path d="M48.5,33c-3.2,0-8,0-8,6.8v7.6h3v-7.2c0-3.5,1.1-4.4,5-4.4c3.9,0,5,1,5,4.4v7.2h3.1v-7.6C56.6,33,51.5,33,48.5,33"/>
		<polygon points="18.8,33 13.6,43.7 8.4,33.1 8.4,33 4.9,33 12.1,47.3 12.2,47.4 15,47.4 22.3,33 		"/>
		<line x1="90.2" y1="41.1" x2="97.3" y2="41.1"/>
		<path d="M190,40.2c0-7.2-5.3-7.2-7.9-7.2c-2.3,0-7.7,0-7.7,7.2c0,7.2,5.4,7.2,7.7,7.2h7.2v-2.7h-7.2c-3.6,0-4.4-0.9-4.6-3.5H190
			V40.2z M177.7,38.4c0.3-1.8,1.1-2.7,4.4-2.7c3.5,0,4.4,0.9,4.6,2.7H177.7z"/>
		<polygon points="147.3,43.7 142.2,33.1 142.1,33 138.6,33 145.9,47.3 145.9,47.4 148.8,47.4 156.1,33 152.6,33 		"/>
		<path d="M108,33c-4.3,0-8.2,0.5-8.2,7.2v11.6h3.1v-5.1c1.5,0.7,3.4,0.8,5,0.8c4.3,0,8.2-0.5,8.2-7.2C116.2,33.6,112.3,33,108,33
			 M108,44.6c-4.8,0-5-0.9-5-4.4c0-3.4,0.2-4.4,5-4.4c4.8,0,5,1,5,4.4C113,43.7,112.8,44.6,108,44.6"/>
		<path d="M118.9,39.8v7.6h3.1v-7.2c0-3.3,0.2-4.4,5-4.4h3.3V33h-2.9C123.1,33,118.9,33,118.9,39.8"/>
		<path d="M164.3,33c-2.3,0-7.7,0-7.7,7.2c0,7.2,5.4,7.2,7.7,7.2h7.2v-2.7h-7.2c-3.6,0-4.4-0.9-4.6-3.5h12.4v-0.9
			C172.2,33,166.9,33,164.3,33 M159.9,38.4c0.3-1.8,1.1-2.7,4.4-2.7c3.5,0,4.4,0.9,4.6,2.7H159.9z"/>
		<path d="M79.7,33c-2.3,0-7.7,0-7.7,7.2c0,7.2,5.4,7.2,7.7,7.2h7.2v-2.7h-7.2c-3.6,0-4.4-0.9-4.6-3.5h12.4v-0.9
			C87.6,33,82.3,33,79.7,33 M75.3,38.4c0.3-1.8,1.1-2.7,4.4-2.7c3.5,0,4.4,0.9,4.6,2.7H75.3z"/>
		<path d="M30,33c-2.3,0-7.7,0-7.7,7.2c0,7.2,5.4,7.2,7.7,7.2h7.2v-2.7H30c-3.6,0-4.4-0.9-4.6-3.5h12.4v-0.9C37.9,33,32.6,33,30,33
			 M25.6,38.4c0.3-1.8,1.1-2.7,4.4-2.7c3.5,0,4.4,0.9,4.6,2.7H25.6z"/>
		<path d="M134.7,27.4c-0.9,0-1.7,0.8-1.7,1.7c0,0.9,0.7,1.7,1.7,1.7c0.9,0,1.7-0.8,1.7-1.7C136.4,28.1,135.6,27.4,134.7,27.4"/>
		<rect x="133.1" y="33" width="3.1" height="14.3"/>
	</g>
	<path class="st0" d="M224.6,35.6c-0.4-0.1-1.2,0.2-1.7,0.9c-1.3,1.6-2.3,2.8-3.9,3.9c4.4-4.6,9.6-15.7,3.2-26.7
		c0,0-2.5,1.7-4.5,5.3c-2-3.1-4.9-5.7-8.6-8.1c0,0-9.2,10.3-5.1,25.3c-12.3,1.7-7.1,11.6-5.4,12.2c0,0-3.4-4.3,1.1-8.3
		c2-1.8,6.3-2.3,6.3-2.3c-1-7.2-0.9-13.7,4-20.9c0.6,0.4,7.8,3.6,8,14.2c0.6,6.7-2.8,12-6.2,14.1c-5.8,3.1-12.1,4.7-19,6.3
		c13.2,0,26.2-6.6,31.3-12.7C225.9,36.8,225.1,35.7,224.6,35.6z M220.7,27.8c-0.2-2.2-0.7-4.1-1.5-5.9c1.3-2.8,2.7-3.8,2.7-3.8
		s2.8,7.2,0.3,14.6c-1.9,5.6-3.8,8-4.6,8.8C220.9,36.7,221,31.3,220.7,27.8z"/>
</g>
</svg>
