<?xml version="1.0" encoding="UTF-8" standalone="no"?>
<!DOCTYPE svg PUBLIC "-//W3C//DTD SVG 20010904//EN"
              "http://www.w3.org/TR/2001/REC-SVG-20010904/DTD/svg10.dtd">

<svg xmlns="http://www.w3.org/2000/svg"
     width="1261" height="1080"
     viewBox="0 0 181 155">
	<linearGradient id="grad1" x1="0%" y1="0%" x2="100%" y2="0%">
      <stop offset="0%" style="stop-color:rgb(31,106,168);stop-opacity:1" />
      <stop offset="60%" style="stop-color:rgb(130,212,247);stop-opacity:1" />
    </linearGradient>
	<linearGradient id="grad2" x1="0%" y1="0%" x2="110%" y2="0%">
      <stop offset="35%" style="stop-color:rgb(130,212,247);stop-opacity:1" />
      <stop offset="100%" style="stop-color:rgb(31,106,168);stop-opacity:1" />
    </linearGradient>
  <path id="path4197"
        fill="url(#grad1)" stroke="url(#grad1)" stroke-width="1"
        d="M 128.71,20.12
           C 115.39,7.81 97.09,0.67 79.00,0.67
             36.45,0.67 0.67,35.21 0.67,77.70
             0.67,119.59 37.05,154.33 78.80,154.33
             97.29,154.33 114.59,147.39 128.71,135.67
             128.71,135.67 128.71,122.57 128.71,122.57
             117.57,136.07 95.70,145.40 78.41,145.40
             60.71,145.40 42.82,136.66 30.29,124.75
             17.77,112.44 10.21,95.96 10.21,78.49
             10.21,41.76 41.03,9.60 78.41,9.60
             96.89,9.60 117.17,19.13 128.71,33.23
             128.71,33.23 128.71,20.12 128.71,20.12 Z" />
  <path id="path4213"
        fill="none" stroke="url(#grad2)" stroke-width="10"
        d="M 175.65,52.38
           C 175.65,52.25 175.65,51.45 175.64,51.33
             175.45,48.19 172.84,45.71 169.65,45.71
             169.65,45.71 79.80,45.71 79.80,45.71
             76.49,45.71 73.80,48.40 73.80,51.71
             73.80,51.71 73.80,104.58 73.80,104.58
             73.80,107.89 76.49,110.58 79.80,110.58
             79.80,110.58 169.65,110.58 169.65,110.58
             172.85,110.58 175.46,108.08 175.64,104.93
             175.65,104.82 175.65,103.88 175.65,103.76" />
</svg>